<svg width="843" height="75" viewBox="0 0 843 75" fill="none" xmlns="http://www.w3.org/2000/svg">
<g clip-path="url(#clip0_445_26)">
<rect width="843" height="75" fill="#0D1116"/>
<path d="M83.4545 39.5455V60H75.2273V25.0909H83.0909V31.0227H83.5C84.303 29.0682 85.5833 27.5152 87.3409 26.3636C89.1136 25.2121 91.303 24.6364 93.9091 24.6364C96.3182 24.6364 98.4167 25.1515 100.205 26.1818C102.008 27.2121 103.402 28.7045 104.386 30.6591C105.386 32.6136 105.879 34.9848 105.864 37.7727V60H97.6364V39.0455C97.6364 36.7121 97.0303 34.8864 95.8182 33.5682C94.6212 32.25 92.9621 31.5909 90.8409 31.5909C89.4015 31.5909 88.1212 31.9091 87 32.5455C85.8939 33.1667 85.0227 34.0682 84.3864 35.25C83.7652 36.4318 83.4545 37.8636 83.4545 39.5455ZM129.455 60.6818C126.045 60.6818 123.091 59.9318 120.591 58.4318C118.091 56.9318 116.152 54.8333 114.773 52.1364C113.409 49.4394 112.727 46.2879 112.727 42.6818C112.727 39.0758 113.409 35.9167 114.773 33.2045C116.152 30.4924 118.091 28.3864 120.591 26.8864C123.091 25.3864 126.045 24.6364 129.455 24.6364C132.864 24.6364 135.818 25.3864 138.318 26.8864C140.818 28.3864 142.75 30.4924 144.114 33.2045C145.492 35.9167 146.182 39.0758 146.182 42.6818C146.182 46.2879 145.492 49.4394 144.114 52.1364C142.75 54.8333 140.818 56.9318 138.318 58.4318C135.818 59.9318 132.864 60.6818 129.455 60.6818ZM129.5 54.0909C131.348 54.0909 132.894 53.5833 134.136 52.5682C135.379 51.5379 136.303 50.1591 136.909 48.4318C137.53 46.7045 137.841 44.7803 137.841 42.6591C137.841 40.5227 137.53 38.5909 136.909 36.8636C136.303 35.1212 135.379 33.7348 134.136 32.7045C132.894 31.6742 131.348 31.1591 129.5 31.1591C127.606 31.1591 126.03 31.6742 124.773 32.7045C123.53 33.7348 122.598 35.1212 121.977 36.8636C121.371 38.5909 121.068 40.5227 121.068 42.6591C121.068 44.7803 121.371 46.7045 121.977 48.4318C122.598 50.1591 123.53 51.5379 124.773 52.5682C126.03 53.5833 127.606 54.0909 129.5 54.0909ZM153.165 60V25.0909H161.142V30.9091H161.506C162.142 28.8939 163.233 27.3409 164.778 26.25C166.339 25.1439 168.119 24.5909 170.119 24.5909C170.574 24.5909 171.081 24.6136 171.642 24.6591C172.218 24.6894 172.695 24.7424 173.074 24.8182V32.3864C172.725 32.2652 172.172 32.1591 171.415 32.0682C170.672 31.9621 169.953 31.9091 169.256 31.9091C167.756 31.9091 166.407 32.2348 165.21 32.8864C164.028 33.5227 163.097 34.4091 162.415 35.5455C161.733 36.6818 161.392 37.9924 161.392 39.4773V60H153.165ZM178.54 60V25.0909H186.403V31.0227H186.812C187.54 29.0227 188.744 27.4621 190.426 26.3409C192.108 25.2045 194.116 24.6364 196.449 24.6364C198.812 24.6364 200.805 25.2121 202.426 26.3636C204.063 27.5 205.214 29.053 205.881 31.0227H206.244C207.017 29.0833 208.32 27.5379 210.153 26.3864C212.002 25.2197 214.191 24.6364 216.722 24.6364C219.934 24.6364 222.555 25.6515 224.585 27.6818C226.616 29.7121 227.631 32.6742 227.631 36.5682V60H219.381V37.8409C219.381 35.6742 218.805 34.0909 217.653 33.0909C216.502 32.0758 215.093 31.5682 213.426 31.5682C211.441 31.5682 209.888 32.1894 208.767 33.4318C207.661 34.6591 207.108 36.2576 207.108 38.2273V60H199.04V37.5C199.04 35.697 198.494 34.2576 197.403 33.1818C196.328 32.1061 194.919 31.5682 193.176 31.5682C191.994 31.5682 190.919 31.8712 189.949 32.4773C188.979 33.0682 188.206 33.9091 187.631 35C187.055 36.0758 186.767 37.3333 186.767 38.7727V60H178.54Z" fill="white"/>
<path d="M274.227 28.5C274.106 27.3939 273.848 26.4167 273.455 25.5682C273.076 24.7045 272.553 23.9773 271.886 23.3864C271.22 22.7803 270.409 22.3182 269.455 22C268.5 21.6818 267.394 21.5227 266.136 21.5227C263.758 21.5227 261.53 22.1136 259.455 23.2955C257.394 24.4773 255.636 26.197 254.182 28.4545C252.727 30.697 251.735 33.4394 251.205 36.6818C250.659 39.9242 250.659 42.6818 251.205 44.9545C251.765 47.2273 252.818 48.9621 254.364 50.1591C255.924 51.3409 257.932 51.9318 260.386 51.9318C262.614 51.9318 264.614 51.5379 266.386 50.75C268.159 49.947 269.606 48.8182 270.727 47.3636C271.864 45.9091 272.591 44.1894 272.909 42.2045L274.864 42.5H262.886L264.114 35.0909H283.591L282.591 40.9545C281.939 45.0455 280.508 48.5606 278.295 51.5C276.083 54.4394 273.326 56.697 270.023 58.2727C266.735 59.8485 263.129 60.6364 259.205 60.6364C254.841 60.6364 251.167 59.6742 248.182 57.75C245.212 55.8106 243.098 53.0606 241.841 49.5C240.598 45.9242 240.379 41.6818 241.182 36.7727C241.803 33 242.909 29.6364 244.5 26.6818C246.106 23.7121 248.068 21.197 250.386 19.1364C252.705 17.0758 255.273 15.5076 258.091 14.4318C260.924 13.3561 263.871 12.8182 266.932 12.8182C269.568 12.8182 271.955 13.2045 274.091 13.9773C276.242 14.7348 278.083 15.8106 279.614 17.2045C281.159 18.5985 282.326 20.2576 283.114 22.1818C283.917 24.0909 284.288 26.197 284.227 28.5H274.227ZM286.642 60L292.46 25.0909H301.847L300.824 31.1818H301.188C302.188 29.0152 303.528 27.3788 305.21 26.2727C306.907 25.1515 308.733 24.5909 310.688 24.5909C311.172 24.5909 311.68 24.6212 312.21 24.6818C312.756 24.7273 313.241 24.803 313.665 24.9091L312.21 33.5227C311.786 33.3712 311.18 33.25 310.392 33.1591C309.619 33.053 308.884 33 308.188 33C306.778 33 305.468 33.3106 304.256 33.9318C303.044 34.5379 302.021 35.3864 301.188 36.4773C300.369 37.5682 299.831 38.8258 299.574 40.25L296.324 60H286.642ZM321.693 60.6591C319.481 60.6591 317.564 60.2727 315.943 59.5C314.337 58.7121 313.155 57.5455 312.398 56C311.64 54.4545 311.451 52.5379 311.83 50.25C312.163 48.3106 312.792 46.6894 313.716 45.3864C314.655 44.0682 315.799 43.0076 317.148 42.2045C318.496 41.4015 319.989 40.7879 321.625 40.3636C323.277 39.9394 324.981 39.6515 326.739 39.5C328.769 39.2879 330.42 39.0833 331.693 38.8864C332.981 38.6894 333.943 38.4091 334.58 38.0455C335.216 37.6667 335.602 37.1061 335.739 36.3636V36.2273C335.966 34.803 335.701 33.697 334.943 32.9091C334.201 32.1061 333.011 31.7045 331.375 31.7045C329.648 31.7045 328.178 32.0833 326.966 32.8409C325.769 33.5985 324.913 34.5606 324.398 35.7273L315.58 35C316.367 32.8788 317.557 31.0455 319.148 29.5C320.754 27.9394 322.686 26.7424 324.943 25.9091C327.201 25.0606 329.731 24.6364 332.534 24.6364C334.473 24.6364 336.284 24.8636 337.966 25.3182C339.663 25.7727 341.125 26.4773 342.352 27.4318C343.595 28.3864 344.489 29.6136 345.034 31.1136C345.595 32.5985 345.708 34.3788 345.375 36.4545L341.443 60H332.261L333.08 55.1591H332.807C332.064 56.25 331.155 57.2121 330.08 58.0455C329.004 58.8636 327.769 59.5076 326.375 59.9773C324.981 60.4318 323.42 60.6591 321.693 60.6591ZM325.58 53.9773C326.989 53.9773 328.284 53.697 329.466 53.1364C330.663 52.5606 331.648 51.7879 332.42 50.8182C333.208 49.8485 333.708 48.75 333.92 47.5227L334.511 43.8182C334.208 44.0152 333.769 44.1894 333.193 44.3409C332.633 44.4924 332.019 44.6364 331.352 44.7727C330.701 44.8939 330.042 45.0076 329.375 45.1136C328.708 45.2045 328.11 45.2955 327.58 45.3864C326.413 45.553 325.367 45.8182 324.443 46.1818C323.519 46.5455 322.769 47.0379 322.193 47.6591C321.617 48.2652 321.261 49.0227 321.125 49.9318C320.913 51.25 321.223 52.2576 322.057 52.9545C322.905 53.6364 324.08 53.9773 325.58 53.9773ZM346.841 73.0909L354.886 25.0909H364.432L363.455 30.9545H363.886C364.462 30.0152 365.227 29.0606 366.182 28.0909C367.152 27.1061 368.356 26.2879 369.795 25.6364C371.235 24.9697 372.924 24.6364 374.864 24.6364C377.424 24.6364 379.659 25.303 381.568 26.6364C383.477 27.9545 384.856 29.947 385.705 32.6136C386.568 35.2652 386.667 38.5909 386 42.5909C385.364 46.4848 384.189 49.7727 382.477 52.4545C380.78 55.1212 378.742 57.1439 376.364 58.5227C374 59.8864 371.492 60.5682 368.841 60.5682C366.962 60.5682 365.417 60.2576 364.205 59.6364C363.008 59.0152 362.076 58.2348 361.409 57.2955C360.742 56.3409 360.273 55.3788 360 54.4091H359.636L356.545 73.0909H346.841ZM361.455 42.5455C361.121 44.6212 361.106 46.4318 361.409 47.9773C361.727 49.5227 362.364 50.7273 363.318 51.5909C364.273 52.4394 365.53 52.8636 367.091 52.8636C368.667 52.8636 370.068 52.4318 371.295 51.5682C372.523 50.6894 373.545 49.4773 374.364 47.9318C375.182 46.3712 375.765 44.5758 376.114 42.5455C376.432 40.5303 376.439 38.7576 376.136 37.2273C375.833 35.697 375.212 34.5 374.273 33.6364C373.333 32.7727 372.061 32.3409 370.455 32.3409C368.894 32.3409 367.492 32.7576 366.25 33.5909C365.023 34.4242 364 35.6061 363.182 37.1364C362.364 38.6667 361.788 40.4697 361.455 42.5455ZM402.608 39.8182L399.244 60H389.585L397.312 13.4545H406.699L403.79 31.25H404.176C405.297 29.1894 406.835 27.5758 408.79 26.4091C410.744 25.2273 413.055 24.6364 415.722 24.6364C418.146 24.6364 420.169 25.1667 421.79 26.2273C423.426 27.2727 424.585 28.7803 425.267 30.75C425.949 32.7045 426.062 35.0455 425.608 37.7727L421.881 60H412.222L415.631 39.5C415.979 37.3485 415.699 35.6742 414.79 34.4773C413.896 33.2803 412.472 32.6818 410.517 32.6818C409.199 32.6818 407.987 32.9621 406.881 33.5227C405.775 34.0833 404.843 34.9015 404.085 35.9773C403.343 37.0379 402.85 38.3182 402.608 39.8182Z" fill="url(#paint0_linear_445_26)"/>
<path d="M9 63.36H57V15.36H9V63.36Z" fill="white"/>
</g>
<defs>
<linearGradient id="paint0_linear_445_26" x1="429" y1="36.5" x2="237" y2="36.5" gradientUnits="userSpaceOnUse">
<stop stop-color="#D46679"/>
<stop offset="1" stop-color="#5482EC"/>
</linearGradient>
<clipPath id="clip0_445_26">
<rect width="843" height="75" fill="white"/>
</clipPath>
</defs>
</svg>
